<?xml version="1.0" encoding="UTF-8" standalone="no"?>
<!DOCTYPE svg PUBLIC "-//W3C//DTD SVG 1.1//EN" "http://www.w3.org/Graphics/SVG/1.1/DTD/svg11.dtd">
<svg width="7.68" height="7.68" viewBox="0.00 0.00 64.00 64.00" xmlns="http://www.w3.org/2000/svg" xmlns:xlink="http://www.w3.org/1999/xlink">
<g stroke-linecap="round" id="0_ICON">
<path d="M8.00,20.80 L12.80,16.00 L9.60,12.80 L14.40,8.00 L17.60,11.20 L22.40,6.40 L27.20,6.40 L27.20,3.20 L36.80,3.20 L36.80,6.40 L41.60,6.40 L46.40,11.20 L49.60,8.00 L54.40,12.80 L51.20,16.00 L56.00,20.80 L56.00,25.60 L59.20,25.60 L59.20,38.40 L56.00,38.40 L56.00,43.20 L51.20,48.00 L54.40,51.20 L49.60,56.00 L46.40,52.80 L41.60,57.60 L36.80,57.60 L36.80,60.80 L27.20,60.80 L27.20,57.60 L22.40,57.60 L17.60,52.80 L14.40,56.00 L9.60,51.20 L12.80,48.00 L8.00,43.20 L8.00,38.40 L4.80,38.40 L4.80,25.60 L8.00,25.60 L8.00,20.80 Z" fill="none" stroke="rgb(255, 255, 255)" stroke-width="3.00" stroke-opacity="1.00" stroke-linejoin="miter"/>
<path d="M12.80,27.20 L27.20,27.20" fill="none" stroke="rgb(255, 255, 255)" stroke-width="3.00" stroke-opacity="1.00" stroke-linejoin="round"/>
<path d="M36.80,27.20 L51.20,27.20" fill="none" stroke="rgb(255, 255, 255)" stroke-width="3.00" stroke-opacity="1.00" stroke-linejoin="round"/>
<path d="M20.80,43.20 L43.20,43.20" fill="none" stroke="rgb(255, 255, 255)" stroke-width="3.00" stroke-opacity="1.00" stroke-linejoin="round"/>
<path d="M25.60,43.20 L27.20,49.60 L36.80,49.60 L38.40,43.20" fill="none" stroke="rgb(255, 255, 255)" stroke-width="3.00" stroke-opacity="1.00" stroke-linejoin="miter"/>
<path d="M16.00,27.77 L17.60,30.40 L22.40,30.40 L24.00,27.20" fill="none" stroke="rgb(255, 255, 255)" stroke-width="3.00" stroke-opacity="1.00" stroke-linejoin="miter"/>
<path d="M40.00,27.20 L41.60,30.40 L46.40,30.40 L48.00,27.20" fill="none" stroke="rgb(255, 255, 255)" stroke-width="3.00" stroke-opacity="1.00" stroke-linejoin="miter"/>
<path d="M22.40,14.40 L41.60,14.40 L41.60,16.00 L22.40,16.00 L22.40,14.40 Z" fill="none" stroke="rgb(255, 255, 255)" stroke-width="3.00" stroke-opacity="1.00" stroke-linejoin="miter"/>
<path d="M20.65,20.70 L43.37,20.70" fill="none" stroke="rgb(255, 255, 255)" stroke-width="3.00" stroke-opacity="1.00" stroke-linejoin="round"/>
<path d="M32.00,22.40 L32.00,35.20" fill="none" stroke="rgb(255, 255, 255)" stroke-width="3.00" stroke-opacity="1.00" stroke-linejoin="round"/>
<path d="M32.00,46.40 L32.01,43.42" fill="none" stroke="rgb(255, 255, 255)" stroke-width="3.00" stroke-opacity="1.00" stroke-linejoin="round"/>
</g>
</svg>
