<?xml version="1.0" encoding="UTF-8" standalone="no"?>
<!DOCTYPE svg PUBLIC "-//W3C//DTD SVG 1.1//EN" "http://www.w3.org/Graphics/SVG/1.1/DTD/svg11.dtd">
<svg width="7.68" height="7.68" viewBox="0.00 0.00 64.00 64.00" xmlns="http://www.w3.org/2000/svg" xmlns:xlink="http://www.w3.org/1999/xlink">
<g stroke-linecap="round" id="23_B_BATTERY">
<path d="M4.80,35.20 L12.80,30.40 L12.80,51.20 L4.80,51.20 L4.80,35.20 Z" fill="none" stroke="rgb(255, 255, 255)" stroke-width="3.00" stroke-opacity="1.00" stroke-linejoin="miter"/>
<path d="M4.80,54.40 L20.80,54.40 L25.60,60.80 L8.00,60.80 L4.80,54.40 Z" fill="none" stroke="rgb(255, 255, 255)" stroke-width="3.00" stroke-opacity="1.00" stroke-linejoin="miter"/>
<path d="M4.80,12.80 L12.80,8.00 L12.80,24.00 L4.80,28.80 L4.80,12.80 Z" fill="none" stroke="rgb(255, 255, 255)" stroke-width="3.00" stroke-opacity="1.00" stroke-linejoin="miter"/>
<path d="M17.60,8.00 L43.20,8.00 L44.80,14.40 L17.60,14.40 L17.60,8.00 Z" fill="none" stroke="rgb(255, 255, 255)" stroke-width="3.00" stroke-opacity="1.00" stroke-linejoin="miter"/>
<path d="M48.00,8.00 L57.60,8.00 L57.60,22.40 L52.80,22.40 L48.00,8.00 Z" fill="none" stroke="rgb(255, 255, 255)" stroke-width="3.00" stroke-opacity="1.00" stroke-linejoin="miter"/>
<path d="M35.20,36.80 L35.20,25.60 L44.80,25.60 L44.80,36.80 L38.40,36.80 L38.40,30.40 L41.60,30.40" fill="none" stroke="rgb(255, 255, 255)" stroke-width="3.00" stroke-opacity="1.00" stroke-linejoin="miter"/>
<path d="M33.60,46.40 L33.60,60.80 L46.40,60.80 L46.40,46.40 L54.40,38.40 L48.00,38.40 L41.60,44.80 L38.40,44.80 L30.40,38.40 L24.00,38.40 L33.60,46.40 Z" fill="none" stroke="rgb(255, 255, 255)" stroke-width="3.00" stroke-opacity="1.00" stroke-linejoin="miter"/>
</g>
</svg>
