<?xml version="1.0" encoding="UTF-8" standalone="no"?>
<!DOCTYPE svg PUBLIC "-//W3C//DTD SVG 1.1//EN" "http://www.w3.org/Graphics/SVG/1.1/DTD/svg11.dtd">
<svg width="7.68" height="7.68" viewBox="0.00 0.00 64.00 64.00" xmlns="http://www.w3.org/2000/svg" xmlns:xlink="http://www.w3.org/1999/xlink">
<g stroke-linecap="round" id="SOLAR">
<path d="M24.06,16.00 L40.00,16.00 L47.96,24.25 L47.99,39.91 L40.16,48.00 L24.00,48.04 L16.00,40.00 L16.00,24.00 L24.06,16.00 Z" fill="none" stroke="rgb(255, 255, 255)" stroke-width="3.00" stroke-opacity="1.00" stroke-linejoin="miter"/>
<path d="M32.06,57.60 L36.80,52.80 L27.20,52.80 L32.06,57.60 Z" fill="none" stroke="rgb(255, 255, 255)" stroke-width="3.00" stroke-opacity="1.00" stroke-linejoin="miter"/>
<path d="M27.20,11.20 L36.80,11.20 L32.06,6.40 L27.20,11.20 Z" fill="none" stroke="rgb(255, 255, 255)" stroke-width="3.00" stroke-opacity="1.00" stroke-linejoin="miter"/>
<path d="M44.80,14.40 L49.60,19.20 L52.80,11.20 L44.80,14.40 Z" fill="none" stroke="rgb(255, 255, 255)" stroke-width="3.00" stroke-opacity="1.00" stroke-linejoin="miter"/>
<path d="M52.80,27.20 L52.80,36.40 L57.60,32.00 L52.80,27.20 Z" fill="none" stroke="rgb(255, 255, 255)" stroke-width="3.00" stroke-opacity="1.00" stroke-linejoin="miter"/>
<path d="M44.80,49.60 L49.60,44.80 L52.80,52.80 L44.80,49.60 Z" fill="none" stroke="rgb(255, 255, 255)" stroke-width="3.00" stroke-opacity="1.00" stroke-linejoin="miter"/>
<path d="M14.40,44.80 L19.20,49.60 L11.20,52.80 L14.40,44.80 Z" fill="none" stroke="rgb(255, 255, 255)" stroke-width="3.00" stroke-opacity="1.00" stroke-linejoin="miter"/>
<path d="M11.20,27.20 L11.20,36.80 L6.40,32.00 L11.20,27.20 Z" fill="none" stroke="rgb(255, 255, 255)" stroke-width="3.00" stroke-opacity="1.00" stroke-linejoin="miter"/>
<path d="M14.40,19.20 L19.20,14.40 L11.20,11.20 L14.40,19.20 Z" fill="none" stroke="rgb(255, 255, 255)" stroke-width="3.00" stroke-opacity="1.00" stroke-linejoin="miter"/>
</g>
</svg>
